<svg width="1922" height="1080" viewBox="0 0 1922 1080" fill="none" xmlns="http://www.w3.org/2000/svg">
<path d="M496 660V522H513.5V692.5H615" stroke="black"/>
<path d="M626.5 421.5L670 418.5V458L626.5 460.5V421.5Z" stroke="black"/>
<path d="M680 417.5L681.5 417.4M681.5 417.4L725 414.5V453L681.5 454.5V417.4Z" stroke="black"/>
<path d="M887.5 432.5L738 336L755 338.304M963 366.5L921 360.807M841 349.962L755 338.304M841 349.962L902.5 390.735M841 349.962L921 360.807M921 403L902.5 390.735M755 338.304L788.5 360.477M895 426H887.5L855 404.49M855 404.49L913 410M855 404.49L822 382.649M822 382.649L902.5 390.735M822 382.649L788.5 360.477M902.5 390.735L931 393.5M788.5 360.477L947 380L921 360.807M735.5 414.5V453L782 451V410L735.5 414.5Z" stroke="black"/>
<path d="M1216.5 496L1034 369.5L1037 364M1216.5 496L1650.5 529.5V522.5M1216.5 496V488M1650.5 522.5L1616 519.757M1650.5 522.5L1619.5 501.203M1037 364L1114.5 375.692M1037 364L1086.5 398.195M1216.5 488L1280 493.048M1216.5 488L1171.74 457.078M1114.5 375.692L1280 493.048M1114.5 375.692L1183.5 386.102M1280 493.048L1343 498.056M1343 498.056L1183.5 386.102M1343 498.056L1397.5 502.388M1183.5 386.102L1247 395.682M1247 395.682L1397.5 502.388M1247 395.682L1305.5 404.508M1397.5 502.388L1447 506.323M1447 506.323L1305.5 404.508M1447 506.323L1494.5 510.099M1305.5 404.508L1358 412.428M1358 412.428L1494.5 510.099M1358 412.428L1405 419.519M1494.5 510.099L1538.5 513.597M1538.5 513.597L1405 419.519M1538.5 513.597L1581.5 517.015M1405 419.519L1449 426.157M1449 426.157L1581.5 517.015M1449 426.157L1488.25 432.078M1581.5 517.015L1616 519.757M1616 519.757L1488.25 432.078M1488.25 432.078L1527.5 438L1558 458.953M1086.5 398.195L1558 458.953M1086.5 398.195L1126.98 426.157M1558 458.953L1588.5 479.907M1126.98 426.157L1588.5 479.907M1126.98 426.157L1171.74 457.078M1588.5 479.907L1619.5 501.203M1619.5 501.203L1171.74 457.078M1523.5 549.5L1542.5 551V653H1523.5V549.5ZM1551 551H1569V653H1551V551Z" stroke="black"/>
<path d="M332.5 516.5H337V498.5L411.5 457.5M652 420.5V439.5M652 458.5V439.5M652 439.5H627H668.5M705.5 416.5V434.75M705.5 453V434.75M705.5 434.75H682.5H725M1577.5 553H1592.5V652H1577.5V553ZM1599.5 553H1615.5L1617.5 652H1599.5V553Z" stroke="black"/>
<path d="M736.5 433.5H759M781.5 433.5H759M759 433.5V413V452" stroke="black"/>
<path d="M161 779H140.5L1 772" stroke="black"/>
<path d="M538 799L1920.5 848" stroke="black"/>
<path d="M236 794L1 784M436 806L1921 872" stroke="black"/>
<path d="M453 493V535.5L455.5 537.5" stroke="black"/>
<path d="M456 686L454 688.5V696L465 698.5M465 698.5V686M465 698.5H478V686" stroke="black"/>
<path d="M320.5 516V496.5L396.5 450L460.5 481.5M566 540V687H580.5V540H566Z" stroke="black"/>
<path d="M613.5 540H590V687H613.5V540Z" stroke="black"/>
<path d="M675 531.5L630.5 533.5V650.5H675V531.5Z" stroke="black"/>
<path d="M735.5 531H690.5V652H735.5V531Z" stroke="black"/>
<path d="M790 529H752.5V652H801V531" stroke="black"/>
<path d="M453 522.5H437.5V630.5H455.5M455.5 630.5V536.5H478M455.5 630.5V686H478V536.5M478 536.5V522.5L799.5 510.5L789.5 520V530H818V513.5L983 366.5L1185.5 506V523H1214.5L1675.5 547.5L1681.5 538" stroke="black"/>
<path d="M1636 545.5V660.5" stroke="black"/>
<path d="M1464.5 710.5V692.5H1489.5M1464.5 710.5L1489.5 712.5M1464.5 710.5L1336.5 717M1489.5 692.5V712.5M1489.5 692.5L1738.5 684M1489.5 712.5L1738.5 694.5V684M1738.5 684L1726 681.5M1336.5 717V622.5H1289M1336.5 717L1289 721.5V622.5M1289 622.5H1284.5M1284.5 622.5V721.5L1237 724.5M1284.5 622.5H1237M1237 622.5H1220.5V721.5M1237 622.5V724.5M1220.5 721.5L1237 724.5M1220.5 721.5L1201.5 724.5M1201.5 724.5V523.5M1201.5 724.5L1158.5 719.5L537.5 799L437 806L221.5 792.5L160 779L876.5 714.5" stroke="black"/>
<path d="M859.5 539L849.5 536V708H810.5V536L802.5 530H832" stroke="black"/>
<path d="M319.5 621.5V517H333.5H293V506L394.5 436M394.5 436L483.5 479M394.5 436L547 445M483.5 479L417.5 488.5M483.5 479L543 474.5L859 459.5L850.5 465.5L417.5 488.5M417.5 488.5V494.5L840.885 474.5M547 445L687 319M547 445L535 456.5V465.5H559V451L687 332.5L847.5 440V456.5H861.213M687 319L874.5 445M687 319L968.5 361.5M968.5 361.5L982.5 349.5M968.5 361.5L861.213 456.5M789.5 520L840.885 474.5M982.5 349.5L1524 431.5L1680.5 537.5L1213 510L982.5 349.5ZM861.213 456.5L840.885 474.5M337 526H373V631H339.5L337 526ZM859 714V539L1158.5 528.5V720L859 714ZM387.5 526H424V631H387.5V526Z" stroke="black"/>
</svg>
