<svg width="1922" height="1080" viewBox="0 0 1922 1080" fill="none" xmlns="http://www.w3.org/2000/svg">
<path d="M582 676.075L1 736.075" stroke="black"/>
<path d="M1385 563.075L1921 531.075" stroke="black"/>
<path d="M563 431.075V450.075L554 455.575M563 431.075C663.588 424.059 717.578 426.723 810 442.075M563 431.075L585 423.075C597.167 416.57 608.793 410.542 620 404.96M1244 467.075C1252.67 469.052 1258.73 468.367 1266 465.594M1266 465.594C1269.03 464.437 1272.27 462.917 1276 461.075C1269.77 447.578 1264.06 443.45 1250 442.075L1244 450.075C1196.71 375.922 1134.8 350.221 1037 341.812M1266 465.594L1311 484.075C1364.51 500.938 1378.14 519.551 1384 563.075C1386.56 593.857 1385.1 610.051 1372 635.075M1372 635.075C1379.33 573.24 1373.13 549.692 1345 526.075C1312.98 535.595 1300.57 564.086 1287.64 635.075M1372 635.075C1368.44 657.249 1363.07 668.592 1345 686.075C1322.6 687.517 1310.04 687.327 1287.64 686.075M1266 658.075L1285 650.075C1285.89 644.876 1286.76 639.878 1287.64 635.075M1266 658.075L1032 686.075L1045 658.075M1266 658.075C1273.46 671.072 1277.63 676.567 1285 679.075M1045 658.075C1049.09 604.562 1044.3 575.913 1019.83 556.075M1045 658.075L1137 649.354M1287.64 635.075L1137 649.354M896 698.075C922.688 590.268 941.911 548.008 992 540.075C1003.27 544.9 1012.45 550.086 1019.83 556.075M896 698.075C867.744 700.006 850.595 699.209 831 692.291M896 698.075C902.095 722.548 906.904 729.903 917 736.075C946.289 742.356 962.711 743.245 992 736.075C1008.91 728.373 1017.6 718.313 1032 692.291M816 686.075L777 626.075C740.079 615.269 714.465 610.762 655 607.075C606.76 601.794 582.571 601.688 545 607.075L534.774 618.075M816 686.075L714 671.075C696.479 676.868 686.91 678.104 670 679.075L577 663.451M816 686.075C821.278 688.546 826.212 690.601 831 692.291M534.774 618.075C531.859 600.57 530.946 582.067 531 556.075C533.826 545.583 536.91 540.113 545 531.075C541.919 515.36 541.302 503.328 542.089 489.815M534.774 618.075C536.939 631.073 540.206 643.52 545 658.075L577 663.451M831 692.291L704 686.075C680.033 705.023 668.448 712.274 655 712.075M646 712.075C609.148 706.23 594.297 695.242 577 663.451M620 404.96C715.219 357.528 780.235 342.174 890 338.075C946.69 337.782 995.133 338.213 1037 341.812M620 404.96C620 404.96 609 410.512 620 417.075C679.935 419.831 714.393 419.663 777 417.075C868.009 375.152 921.299 354.342 1037 341.812M1071 357.075C1085.65 398.353 1093.5 420.372 1106 455.075M1071 357.075C1025.71 356.322 992.14 361.68 953 373.172M1071 357.075C1074.77 357.521 1078.44 357.987 1082 358.481M1106 455.075L978 442.075M1106 455.075L1125 456.661M978 442.075L953 373.172M978 442.075C933.963 434.127 913.817 423.775 885 396.075C910.794 386.781 932.65 379.148 953 373.172M978 442.075C999.685 487.656 1010.02 512.849 1019.83 556.075M796 461.075C792.76 474.753 789.964 486.886 787.083 498.075M563 571.075C630.988 582.134 673.378 582.603 750 582.075C770.491 552.777 779.113 529.035 787.083 498.075M620 489.075L613 526.075C633.922 531.094 646.321 532.375 670 531.075C677.934 515.119 679.549 505.784 682 489.075M577 484.075C636.759 488.932 676.692 490.244 729 489.815M577 484.075C581.529 467.488 578.085 460.604 554 455.575M577 484.075H563L554 489.815H542.089M729 489.815C743.771 489.693 759.53 489.433 777 489.075L787.083 498.075M729 489.815C734.417 477.942 738.816 472.467 750 465.594L831 461.075M831 461.075C841.917 475.955 844.17 484.012 844 498.075M831 461.075H885C876.831 484.527 868.568 493.447 844 498.075M844 498.075H787.083M554 455.575L545 461.075C543.647 472.12 542.587 481.264 542.089 489.815M1082 358.481C1136.82 366.072 1168.32 380.091 1217 423.075L1232 465.594L1125 456.661M1082 358.481L1125 456.661M1125 456.661C1136.47 504.059 1140.27 532.497 1143 586.075L1147 607.075L1137 649.354" stroke="black"/>
<path d="M1031.5 645.575C1031.5 666.629 1026.59 685.664 1018.68 699.42C1010.76 713.188 999.895 721.575 988 721.575C976.105 721.575 965.24 713.188 957.321 699.42C949.409 685.664 944.5 666.629 944.5 645.575C944.5 624.522 949.409 605.486 957.321 591.731C965.24 577.962 976.105 569.575 988 569.575C999.895 569.575 1010.76 577.962 1018.68 591.731C1026.59 605.486 1031.5 624.522 1031.5 645.575Z" stroke="black"/>
<path d="M1369.5 611.075C1369.5 627.864 1366.32 643.038 1361.2 653.997C1356.06 664.996 1349.06 671.575 1341.5 671.575C1333.94 671.575 1326.94 664.996 1321.8 653.997C1316.68 643.038 1313.5 627.864 1313.5 611.075C1313.5 594.287 1316.68 579.112 1321.8 568.153C1326.94 557.154 1333.94 550.575 1341.5 550.575C1349.06 550.575 1356.06 557.154 1361.2 568.153C1366.32 579.112 1369.5 594.287 1369.5 611.075Z" stroke="black"/>
</svg>
