<svg width="1920" height="1080" viewBox="0 0 1920 1080" fill="none" xmlns="http://www.w3.org/2000/svg">
<path d="M979 686.128C957.068 726.608 943.342 744.877 911 753.128C865.44 751.527 847.533 736.768 829 686.128M1288 686.128C1294.05 698.705 1299.18 705.015 1311 715.128C1333.08 720.638 1344.6 720.306 1364 715.128C1379.93 695.621 1386.43 683.439 1391 658.128" stroke="black"/>
<path d="M528 562.128C583.073 504.659 623.651 489.705 709 486.128L765 481.128M528 562.128L632 580.128H571L560 591.128L551 575.128L528 562.128ZM528 562.128C511.414 591.236 508.846 612.338 513.002 640.128M765 481.128C818.869 448.246 849.1 429.902 908 413.128M765 481.128C841.381 483.827 883.387 484.905 957 486.128M908 413.128C983.38 399.145 1026.87 402.322 1105 413.128M908 413.128C1027.48 396.524 1094.47 385.237 1214 407.128C1287.3 432.326 1323.47 450.7 1371 498.128M1105 413.128C1062.45 436.832 1044.13 449.965 1021 473.128C1008.24 483.562 1000.22 487.667 984 491.128L957 486.128M1105 413.128C1142.56 410.179 1173.84 410.732 1202 415.079M1371 498.128C1404.03 506.518 1415 521.072 1413 575.128C1415.82 614.475 1412.55 632.883 1398 659.128C1399.89 605.73 1393.7 584.84 1371 562.128C1333.13 566.745 1317.63 592.909 1300 681.128L1196.5 690.335M1371 498.128C1347.92 480.822 1327.1 466.264 1307 454.311M625 697.128C683.413 705.889 716.802 709.974 778 715.128L824 722.128C834.289 601.89 854.214 563.12 918 551.128C976.454 569.388 988.31 604.686 974 710.128L1196.5 690.335M625 697.128C572.174 690.777 543.622 686.623 509 670.128M625 697.128L637 690.128M519 670.128C516.45 659.065 514.365 649.237 513.002 640.128M957 486.128C795.173 502.853 737.215 521.261 663 562.128C728.934 543.443 766.734 538.336 836 541.128C809.942 564.825 794.491 573.843 765 580.128C751.017 580.364 739.194 580.514 728 580.363M1202 415.079C1194.59 414.105 1187.54 413.438 1180.76 413.128M1202 415.079C1204.48 445.886 1205.41 464.584 1207 498.128M1202 415.079C1240.12 420.964 1272.51 433.801 1307 454.311M1060 498.128H1029C1090.42 430.606 1127.09 410.676 1180.76 413.128M1060 498.128C1064.89 484.508 1068.83 477.382 1084 468.128C1116.65 470.236 1134.78 471.492 1138 486.128V498.128M1060 498.128C1090.46 501.064 1107.54 500.603 1138 498.128M1138 498.128H1186M1186 498.128C1185.7 467.135 1185.4 449.6 1180.76 413.128M1186 498.128H1196.5M1207 498.128C1278.38 493.306 1299.93 487.435 1316 473.128L1307 454.311M1207 498.128H1196.5M728 580.363C707.387 580.084 688.907 578.785 663 575.128L685 562.128C727.626 550.801 751.651 547.118 795 551.128C790.864 558.386 788.232 562.426 778 569.128C756.83 574.207 745.592 576.789 728 580.363ZM637 690.128L656 654.128M637 690.128H741M656 654.128L637 659.128C586.714 655.598 558.804 653.027 513.002 640.128M656 654.128C707.42 642.039 737.465 640.088 787 644.396M795 645.128C792.275 644.867 789.611 644.623 787 644.396M787 644.396C786.088 649.926 785.068 654.799 783.727 659.128M747 690.128C763.059 685.304 772.267 679.668 778 671.39M663 664.128L783.727 659.128M783.727 659.128C782.28 663.799 780.46 667.838 778 671.39M656 676.128L778 671.39M1196.5 498.128V630.128L1202 654.128L1196.5 690.335M1156 526.128H1180.76" stroke="black"/>
<path d="M970.5 656.128C970.5 680.064 963.808 701.712 953.015 717.363C942.22 733.015 927.357 742.628 911 742.628C894.643 742.628 879.78 733.015 868.985 717.363C858.192 701.712 851.5 680.064 851.5 656.128C851.5 632.192 858.192 610.544 868.985 594.894C879.78 579.241 894.643 569.628 911 569.628C927.357 569.628 942.22 579.241 953.015 594.894C963.808 610.544 970.5 632.192 970.5 656.128Z" stroke="black"/>
<path d="M1391.5 641.628C1391.5 658.822 1387.82 674.364 1381.89 685.589C1375.95 696.837 1367.84 703.628 1359 703.628C1350.16 703.628 1342.05 696.837 1336.11 685.589C1330.18 674.364 1326.5 658.822 1326.5 641.628C1326.5 624.434 1330.18 608.892 1336.11 597.668C1342.05 586.42 1350.16 579.628 1359 579.628C1367.84 579.628 1375.95 586.42 1381.89 597.668C1387.82 608.892 1391.5 624.434 1391.5 641.628Z" stroke="black"/>
<path d="M1295 523.128H1320" stroke="black"/>
<path d="M514 598.128H0" stroke="black"/>
<path d="M1414 585.128H1920" stroke="black"/>
<path d="M1024.5 432.128L1050 437.128L1036 449.128L1024.5 432.128ZM1024.5 432.128L1005 428.305M1005 428.305L999 427.128L981 468.128H999C996.195 451.416 998.704 442.966 1005 428.305ZM824 475.128C876.387 443.602 905.004 430.726 953 427.128H962L936 475.128H824Z" stroke="black"/>
</svg>
